<svg width="30" height="23" viewBox="0 0 30 23" fill="none" xmlns="http://www.w3.org/2000/svg">
<g clip-path="url(#clip0_1543_2078)">
<path d="M17.7288 21.6471L19.0923 21.6471L19.0923 20.2941L20.4558 20.2941L20.4558 17.5882L21.8192 17.5882L21.8192 13.5294L23.1827 13.5294L23.1827 10.8235L28.6365 10.8235L28.6365 9.47059L30 9.47059L30 6.76471L28.6365 6.76471L28.6365 5.41176L16.3654 5.41176L16.3654 4.05882L17.7288 4.05882L17.7288 -5.3639e-07L13.6384 -7.15186e-07L13.6384 1.35294L12.275 1.35294L12.275 2.70588L9.54805 2.70588L9.54805 4.05882L6.82112 4.05882L6.82112 5.41176L4.0942 5.41176L4.0942 6.7647L0.00380792 6.7647L0.00380733 20.2941L4.0942 20.2941L4.0942 21.6471L8.18459 21.6471L8.18459 23L17.7288 23L17.7288 21.6471Z" fill="white"/>
<path d="M28.6367 6.76481L28.6367 5.41187L12.2752 5.41186L12.2752 6.76481L28.6367 6.76481Z" fill="black"/>
<path d="M30 9.47053L30 6.76465L28.6365 6.76465L28.6365 9.47053L30 9.47053Z" fill="black"/>
<path d="M28.6367 10.8236L28.6367 9.4707L16.3655 9.4707L16.3655 10.8236L28.6367 10.8236Z" fill="black"/>
<path d="M23.1836 13.5294L23.1836 10.8235L21.8201 10.8235L21.8201 13.5294L23.1836 13.5294Z" fill="black"/>
<path d="M20.4551 14.8822L20.4551 13.5293L16.3647 13.5293L16.3647 14.8822L20.4551 14.8822Z" fill="black"/>
<path d="M21.8184 17.5881L21.8184 13.5293L20.4549 13.5293L20.4549 17.5881L21.8184 17.5881Z" fill="black"/>
<path d="M19.0918 18.9411L19.0918 17.5881L15.0052 17.5881L15.0052 18.9411L19.0918 18.9411Z" fill="black"/>
<path d="M20.4551 20.294L20.4551 17.5881L19.0916 17.5881L19.0916 20.294L20.4551 20.294Z" fill="black"/>
<path d="M19.0918 21.6471L19.0918 20.2942L17.7283 20.2942L17.7283 21.6471L19.0918 21.6471Z" fill="black"/>
<path d="M17.7285 22.9999L17.7285 21.647L8.18427 21.647L8.18427 22.9999L17.7285 22.9999Z" fill="black"/>
<path d="M8.18555 21.6471L8.18555 20.2942L4.09516 20.2942L4.09516 21.6471L8.18555 21.6471Z" fill="black"/>
<path d="M4.09375 20.2941L4.09375 18.9412L0.00335789 18.9412L0.00335783 20.2941L4.09375 20.2941Z" fill="black"/>
<path d="M1.36328 18.9411L1.36328 6.76465L-0.000179768 6.76465L-0.0001803 18.9411L1.36328 18.9411Z" fill="black"/>
<path d="M16.3652 5.41178L16.3652 4.05884L15.0018 4.05884L15.0018 5.41178L16.3652 5.41178Z" fill="black"/>
<path d="M17.7285 4.05882L17.7285 0L16.3651 -5.95988e-08L16.3651 4.05882L17.7285 4.05882Z" fill="black"/>
<path d="M16.3652 1.35294L16.3652 0L13.6383 -1.19198e-07L13.6383 1.35294L16.3652 1.35294Z" fill="black"/>
<path d="M13.6387 2.70597L13.6387 1.35303L12.2752 1.35303L12.2752 2.70597L13.6387 2.70597Z" fill="black"/>
<path d="M12.2754 4.05875L12.2754 2.70581L9.54846 2.70581L9.54846 4.05875L12.2754 4.05875Z" fill="black"/>
<path d="M9.54883 5.41178L9.54883 4.05884L6.8219 4.05884L6.8219 5.41178L9.54883 5.41178Z" fill="black"/>
<path d="M6.82031 6.76481L6.82031 5.41187L4.09339 5.41187L4.09339 6.76481L6.82031 6.76481Z" fill="black"/>
<path d="M4.09375 8.11759L4.09375 6.76465L1.36682 6.76465L1.36682 8.11759L4.09375 8.11759Z" fill="black"/>
</g>
<defs>
<clipPath id="clip0_1543_2078">
<rect width="23" height="30" fill="white" transform="translate(30) rotate(90)"/>
</clipPath>
</defs>
</svg>
